<svg id="_24x24-lock" data-name="24x24-lock" xmlns="http://www.w3.org/2000/svg" width="20" height="20" viewBox="0 0 20 20">
  <rect id="Frame24" width="20" height="20" fill="#c91d1d" opacity="0"/>
  <path id="lock" d="M14.263,8.8V6.559A4.419,4.419,0,0,0,10,2,4.419,4.419,0,0,0,5.737,6.559V8.8A3.4,3.4,0,0,0,4,11.8v3.04a3.276,3.276,0,0,0,3.158,3.377h5.684A3.276,3.276,0,0,0,16,14.835V11.8a3.4,3.4,0,0,0-1.737-3Zm-3,4.315A1.266,1.266,0,1,1,10,11.763,1.309,1.309,0,0,1,11.263,13.114ZM10,3.69a2.785,2.785,0,0,1,2.684,2.87V8.08a.327.327,0,0,1-.316.338H7.632a.327.327,0,0,1-.316-.338V6.559A2.785,2.785,0,0,1,10,3.69Z" fill="#c91d1d"/>
</svg>
