<svg id="_24x24-unlock" data-name="24x24-unlock" xmlns="http://www.w3.org/2000/svg" width="20" height="20" viewBox="0 0 20 20">
  <rect id="Frame24" width="20" height="20" fill="#29a339" opacity="0"/>
  <path id="unlock" d="M14.263,8.688l.012-2.467A4.386,4.386,0,0,0,10,1.89,4.4,4.4,0,0,0,5.746,6.222a.775.775,0,0,0,.782.834.8.8,0,0,0,.791-.834A2.782,2.782,0,0,1,10,3.58a2.781,2.781,0,0,1,2.684,2.641V7.97a.329.329,0,0,1-.3.336H7.075A3.323,3.323,0,0,0,4,11.515v3.369a3.262,3.262,0,0,0,3.075,3.208l5.852.01A3.283,3.283,0,0,0,16,14.884V11.515A3.415,3.415,0,0,0,14.263,8.688Zm-3,4.315A1.318,1.318,0,0,1,10,14.355a1.355,1.355,0,0,1,0-2.7A1.319,1.319,0,0,1,11.263,13Z" transform="translate(0 0.11)" fill="#29a339"/>
</svg>
